# xmcd CD database file
#
# Track frame offsets:
#	150
#	20391
#	40506
#	60047
#	94308
#	107960
#	134765
#	167126
#	177935
#	194643
#	223771
#	258063
#	289756
#
# Disc length: 4156 seconds
#
# Revision: 0
# Processed by: cddbd v1.4PL0 Copyright (c) Steve Scherf et al.
# Submitted via: CDex 1.50
#
DISCID=ba103a0d
DTITLE=Jamiroquai - Inedits
DYEAR=1900
DGENRE=Jazz
TTITLE0=Akimbo Flight To Havana
TTITLE1=Brother like You
TTITLE2=Coffey
TTITLE3=Do It Like  We Used To Do
TTITLE4=Hey mr Boogie (Interlude)
TTITLE5=Light Years (Live)
TTITLE6=Miss You
TTITLE7=Signed Sealed Delivered
TTITLE8=Snooze Your Loose
TTITLE9=Stu's Tune
TTITLE10=Sugarhille Jam
TTITLE11=The Harder They Come
TTITLE12=Space Clav
EXTD=
EXTT0=
EXTT1=
EXTT2=
EXTT3=
EXTT4=
EXTT5=
EXTT6=
EXTT7=
EXTT8=
EXTT9=
EXTT10=
EXTT11=
EXTT12=
PLAYORDER=
